<svg xmlns="http://www.w3.org/2000/svg" width="430" height="430" style="width:100%;height:100%;transform:translate3d(0,0,0);content-visibility:visible" viewBox="0 0 430 430"><defs><clipPath id="a"><path d="M0 0h430v430H0z"/></clipPath><clipPath id="c"><path d="M0 0h430v430H0z"/></clipPath><clipPath id="b"><path d="M0 0h430v430H0z"/></clipPath></defs><g clip-path="url(#a)"><g clip-path="url(#b)" style="display:block"><path fill="none" stroke="#3A3347" stroke-linecap="round" stroke-linejoin="round" stroke-width="7" d="M.11-41.336V-.132M-16.961 0h38.547" class="secondary" style="display:block" transform="translate(188.323 338.933)"/><path fill="none" stroke="#3A3347" stroke-linecap="round" stroke-linejoin="round" stroke-width="7" d="M0-45.847V-.132M-19.836 0h36.797" class="secondary" style="display:block" transform="translate(227.375 338.933)"/><g style="display:block"><path fill="#F9C9C0" d="M323.84 154.86c5.29 71.57-47.79 134.44-119.54 140.98-62.78 5.73-119.29-33.54-137.64-91.23 7.75.69 15.68.7 23.7-.03 48.73-4.45 85.81-28.14 107.92-76.39 9.51-20.66 29.47-35.81 53.74-38.02 25.79-2.35 49.45 10.54 62.07 31.26m9.75 33.43c17.79-12.21 46.72-21.11 46.72-21.11 2.52-1.14 2.35-2.43-.37-2.89 0 0-23.37-11.33-56.1-9.43m-45.72-.2" class="primary"/><path fill="none" stroke="#3A3347" stroke-linecap="round" stroke-linejoin="round" stroke-width="12" d="M268.373 121.229q0 0 0 0" class="secondary"/></g><g fill="#F9C9C0" style="display:block"><path d="M252.048 222.276c-19.139 53.063-77.665 80.561-130.728 61.422-45.928-16.566-72.709-62.644-66.671-109.141a103 103 0 0 0 16.644 7.743c35.65 12.858 69.439 8.392 100.773-18.21 13.442-11.385 32.42-15.465 50.171-9.062 24.738 8.923 38.32 35.03 32.122 60.011-.003.032-2.311 7.237-2.311 7.237" class="primary"/><path fill-opacity=".5" d="M97.22 1.385C78.081 54.448 19.555 81.946-33.508 62.807-79.436 46.241-106.217.163-100.179-46.334a103 103 0 0 0 16.644 7.743c35.65 12.858 69.439 8.392 100.773-18.21 13.442-11.385 32.42-15.465 50.171-9.062 24.738 8.923 38.32 35.03 32.122 60.011-.003.032-2.311 7.237-2.311 7.237" class="primary" style="mix-blend-mode:multiply" transform="translate(154.828 220.891)"/></g><path fill="none" stroke="#F9C9C0" stroke-linecap="round" stroke-linejoin="round" stroke-width="7" d="M18.754 17.427s-48.738 41.611-103.613 3.935" class="primary" style="display:block" transform="translate(154.828 220.891)"/></g><g clip-path="url(#c)" style="display:none"><path fill="none" class="secondary" style="display:none"/><path fill="none" class="secondary" style="display:none"/><g style="display:none"><path class="primary"/><path fill="none" class="secondary"/></g><g style="display:none"><path class="primary"/><path class="primary" style="mix-blend-mode:multiply"/><path fill="none" class="primary"/></g></g></g></svg>